<?xml version="1.0" ?><svg enable-background="new 0 0 160.7967 208.5177" id="aim" version="1.1" viewBox="0 0 160.7967 208.5177" xml:space="preserve" xmlns="http://www.w3.org/2000/svg" xmlns:xlink="http://www.w3.org/1999/xlink"><g><path d="M104.9687,62.7053c17.0976,0,31.0076-14.0628,31.0076-31.3476C135.9763,14.0665,122.0663,0,104.9687,0   c-17.09,0-30.9924,14.0665-30.9924,31.3577C73.9763,48.6425,87.8787,62.7053,104.9687,62.7053z M104.9687,8   c12.6876,0,23.0076,10.4785,23.0076,23.3577c0,12.8728-10.32,23.3476-23.0076,23.3476c-12.6796,0-22.9924-10.4748-22.9924-23.3476   C81.9763,18.4785,92.2891,8,104.9687,8z" fill="#535353"/><path d="M159.7383,183.6741c-12.586-33.0141-52.1604-56.6896-53.9728-57.7541   c-3.586-1.9435-6.8788-4.6795-8.496-6.1095c-0.168-2.6912,0.3048-4.08,0.828-4.4608c0.922-0.6876,3.6876-0.0916,5.2616,0.6388   l0.2932,0.1248c6.004,2.2636,15.906,1.922,16.8517,1.8827c22.668,0,36.7539-13.992,37.3395-14.5875l2.0156-2.0352l-12.3828-24.8008   l-3.66,2.0448c-30.66,17.1387-39.672,7.3692-40.5116,6.3224c-1.7344-3.498-6.5-12.9648-6.5-12.9648l-0.5312-0.7992   c-6.8244-7.9824-17.7424-4.5624-22.4728-1.6816c-23.0236,13.2012-23.0744,50.8496-23.0588,52.1504   c-2.7772,40.6152-45.9019,52.2072-47.7379,52.68L0,175.1017v3.0976c0,0.8516,0,2.8476,10.5507,27.3807l1.2656,2.9377l3.1408-0.586   c36.6756-6.8204,61.7344-39.3224,68.828-49.5724c37.8672,19.2776,48.3556,43.4727,48.4568,43.7092l1.9884,4.8456l26.5664-20.4628   L159.7383,183.6741z M137.2851,194.4629c-5.16-8.838-19.7424-28.7364-53.1444-44.8552l-3.2424-1.5664L79,151.1037   c-0.2501,0.4043-24.828,39.4803-62.3869,48.3064c-3.0468-7.1541-6.0624-14.496-7.6091-18.6188   c12.0231-4.2796,47.0819-20.0332,49.7303-58.8968c-0.004-0.3436,0.0272-34.5545,19.1172-45.5036   c0.078-0.0492,7.8672-4.6172,12.0508-0.334c1.0232,2.0332,4.9884,9.916,6.504,12.9528c0.4452,0.752,10.9648,17.6328,47.6288-1.4196   l6,12.0156c-4.3204,3.41-14.9688,10.3903-29.6991,10.3943c-2.5313,0.1133-9.8829,0.0705-13.7345-1.3259   c-1.4024-0.6312-8.2228-3.3948-13.1876,0.1892c-3.4256,2.4784-4.7539,6.9748-3.9452,13.3616l0.1756,1.3904l1.004,0.9748   c0.2148,0.2068,5.2736,5.0956,11.1797,8.2908c0.3751,0.2228,36.5507,21.8516,49.3127,50.9104L137.2851,194.4629z" fill="#535353"/><path d="M101.828,132.8809c-5.9061-3.1952-10.9649-8.084-11.1797-8.2908l-1.004-0.9748l-0.1756-1.3904   c-0.8087-6.3868,0.5196-10.8832,3.9452-13.3616c4.9648-3.584,11.7852-0.8204,13.1876-0.1892   c3.8516,1.3964,11.2032,1.4392,13.7345,1.3259c14.7303-0.004,25.3787-6.9843,29.6991-10.3943l-6-12.0156   c-36.664,19.0524-47.1836,2.1716-47.6288,1.4196c-1.5156-3.0368-5.4808-10.9196-6.504-12.9528   c-4.1836-4.2832-11.9728,0.2848-12.0508,0.334c-19.09,10.9491-19.1212,45.16-19.1172,45.5036   c-2.6484,38.8636-37.7072,54.6172-49.7303,58.8968c1.5467,4.1228,4.5623,11.4647,7.6091,18.6188   C54.172,190.584,78.7499,151.508,79,151.1037l1.8983-3.0624l3.2424,1.5664c33.402,16.1188,47.9844,36.0172,53.1444,44.8552   l13.8556-10.6716C138.3787,154.7325,102.2031,133.1037,101.828,132.8809z" fill="#FFDC82"/><path d="M104.9687,54.7053c12.6876,0,23.0076-10.4748,23.0076-23.3476C127.9763,18.4785,117.6563,8,104.9687,8   C92.2891,8,81.9763,18.4785,81.9763,31.3577C81.9763,44.2305,92.2891,54.7053,104.9687,54.7053z" fill="#FFDC82"/></g></svg>